<svg width="18" height="18" viewBox="0 0 18 18" fill="none" xmlns="http://www.w3.org/2000/svg">
<path d="M9 9C9.96112 8.97638 10.758 8.64825 11.3906 8.01562C12.0232 7.383 12.3514 6.58612 12.375 5.625C12.3514 4.66388 12.0232 3.867 11.3906 3.23438C10.758 2.60175 9.96112 2.27363 9 2.25C8.03888 2.27363 7.242 2.60175 6.60938 3.23438C5.97675 3.867 5.64862 4.66388 5.625 5.625C5.64862 6.58612 5.97675 7.383 6.60938 8.01562C7.242 8.64825 8.03888 8.97638 9 9ZM9 10.125C7.72275 10.0898 6.66225 9.65025 5.8185 8.8065C4.97475 7.96275 4.53525 6.90225 4.5 5.625C4.53525 4.34775 4.97475 3.28725 5.8185 2.4435C6.66225 1.59975 7.72275 1.16025 9 1.125C10.2773 1.16025 11.3378 1.59975 12.1815 2.4435C13.0253 3.28725 13.4648 4.34775 13.5 5.625C13.4648 6.90225 13.0253 7.96275 12.1815 8.8065C11.3378 9.65025 10.2773 10.0898 9 10.125ZM14.625 15.75V14.0625C14.6134 13.5821 14.4493 13.1837 14.1328 12.8672C13.8163 12.5507 13.4179 12.3866 12.9375 12.375H5.0625C4.58212 12.3866 4.18369 12.5507 3.86719 12.8672C3.55069 13.1837 3.38663 13.5821 3.375 14.0625V15.75C3.375 15.9143 3.32231 16.0491 3.21694 16.1544C3.11156 16.2598 2.97675 16.3125 2.8125 16.3125C2.64825 16.3125 2.51344 16.2598 2.40806 16.1544C2.30269 16.0491 2.25 15.9143 2.25 15.75V14.0625C2.27362 13.2656 2.54906 12.6036 3.07631 12.0763C3.60356 11.5491 4.26562 11.2736 5.0625 11.25H12.9375C13.7344 11.2736 14.3964 11.5491 14.9237 12.0763C15.4509 12.6036 15.7264 13.2656 15.75 14.0625V15.75C15.75 15.9143 15.6973 16.0491 15.5919 16.1544C15.4866 16.2598 15.3518 16.3125 15.1875 16.3125C15.0232 16.3125 14.8884 16.2598 14.7831 16.1544C14.6777 16.0491 14.625 15.9143 14.625 15.75Z" fill="currentColor"/>
</svg>
