<svg width="18" height="18" viewBox="0 0 18 18" fill="currentColor" xmlns="http://www.w3.org/2000/svg">
<path fill-rule="evenodd" clip-rule="evenodd" d="M3.375 12.375C3.375 13.6176 4.38236 14.625 5.625 14.625L5.625 16.875H12.375V14.625C13.6176 14.625 14.625 13.6176 14.625 12.375V3.375C14.625 2.13236 13.6176 1.125 12.375 1.125H5.625C4.38236 1.125 3.375 2.13236 3.375 3.375V12.375ZM12.375 2.25H5.625C5.00368 2.25 4.5 2.75368 4.5 3.375V12.375C4.5 12.9963 5.00368 13.5 5.625 13.5H12.375C12.9963 13.5 13.5 12.9963 13.5 12.375V3.375C13.5 2.75368 12.9963 2.25 12.375 2.25ZM6.75 14.625H11.25V15.75H6.75V14.625ZM6.75 5.625C7.37132 5.625 7.875 5.12132 7.875 4.5C7.875 3.87868 7.37132 3.375 6.75 3.375C6.12868 3.375 5.625 3.87868 5.625 4.5C5.625 5.12132 6.12868 5.625 6.75 5.625Z" fill="currentColor"/>
</svg>
