<svg width="18" height="18" viewBox="0 0 18 18" fill="none" xmlns="http://www.w3.org/2000/svg">
<path d="M14.625 6.75H10.125V2.25H3.375V15.75H14.625V6.75ZM14.1683 5.625L11.25 2.70675V5.625H14.1683ZM2.8125 1.125H11.25L15.75 5.625V16.3125C15.75 16.4768 15.6973 16.6116 15.5919 16.7169C15.4866 16.8223 15.3518 16.875 15.1875 16.875H2.8125C2.64825 16.875 2.51344 16.8223 2.40806 16.7169C2.30269 16.6116 2.25 16.4768 2.25 16.3125V1.6875C2.25 1.52325 2.30269 1.38844 2.40806 1.28306C2.51344 1.17769 2.64825 1.125 2.8125 1.125ZM5.625 9H12.375V10.125H5.625V9ZM5.625 5.625H8.4375V6.75H5.625V5.625ZM5.625 12.375H12.375V13.5H5.625V12.375Z" fill="currentColor"/>
</svg>
