<svg width="52" height="24" viewBox="0 0 52 24" fill="none" xmlns="http://www.w3.org/2000/svg">
<path fill-rule="evenodd" clip-rule="evenodd" d="M8.51972 0.000152588V10.5171H11.9148C12.7117 10.517 13.476 10.2005 14.0394 9.63699C14.6029 9.07351 14.9195 8.30927 14.9195 7.51238V3.00486C14.9195 2.20797 14.6029 1.44373 14.0394 0.880248C13.476 0.316765 12.7117 0.000187515 11.9148 0.000152588L8.51972 0.000152588Z" fill="#009595"/>
<path fill-rule="evenodd" clip-rule="evenodd" d="M8.51972 11.6668V23.9999H11.7196C12.5683 23.9999 13.3822 23.6627 13.9823 23.0626C14.5824 22.4625 14.9195 21.6486 14.9195 20.8V14.8667C14.9195 14.0181 14.5824 13.2042 13.9823 12.6041C13.3822 12.004 12.5683 11.6668 11.7196 11.6668H8.51972Z" fill="#009595"/>
<path fill-rule="evenodd" clip-rule="evenodd" d="M6.39981 24L6.39981 3.8147e-06H1.2413C1.07825 1.14441e-05 0.916801 0.0321388 0.766172 0.0945511C0.615543 0.156963 0.478685 0.24844 0.363415 0.363752C0.248145 0.479067 0.156722 0.615959 0.0943663 0.766611C0.0320105 0.917263 -5.49148e-05 1.07873 7.05964e-08 1.24177L7.05964e-08 22.7587C1.3792e-05 23.0879 0.130796 23.4036 0.363581 23.6364C0.596367 23.8692 0.912088 24 1.2413 24H6.39981Z" fill="#009595"/>
<path fill-rule="evenodd" clip-rule="evenodd" d="M24.4045 24V3.8147e-06H19.246C19.0829 1.14441e-05 18.9215 0.0321388 18.7709 0.0945511C18.6202 0.156963 18.4834 0.24844 18.3681 0.363752C18.2528 0.479067 18.1614 0.615959 18.0991 0.766611C18.0367 0.917263 18.0046 1.07873 18.0047 1.24177V22.7587C18.0047 23.0879 18.1355 23.4036 18.3683 23.6364C18.6011 23.8692 18.9168 24 19.246 24H24.4045Z" fill="#339966"/>
<path fill-rule="evenodd" clip-rule="evenodd" d="M26.5244 0.000152588V16.5519H29.7243C30.573 16.5519 31.3869 16.2148 31.987 15.6147C32.5871 15.0146 32.9242 14.2007 32.9242 13.352V3.20006C32.9242 2.35139 32.5871 1.53749 31.987 0.937389C31.3869 0.337291 30.573 0.000157578 29.7243 0.000152588L26.5244 0.000152588Z" fill="#339966"/>
<path d="M45.057 10.659H41.857V12.3336H45.057V10.659Z" fill="#36C9C9"/>
<path fill-rule="evenodd" clip-rule="evenodd" d="M42.4024 12.3337V0.000660896H38.0214C37.4557 0.000705719 36.9131 0.225458 36.5131 0.625485C36.1131 1.02551 35.8883 1.56805 35.8883 2.13377V10.2006C35.8883 10.7663 36.1131 11.3088 36.5131 11.7089C36.9131 12.1089 37.4557 12.3336 38.0214 12.3337H42.4024Z" fill="#36C9C9"/>
<path fill-rule="evenodd" clip-rule="evenodd" d="M44.5148 10.659V23.992H48.9033C49.467 23.9921 50.0076 23.7682 50.4062 23.3697C50.8049 22.9712 51.0288 22.4306 51.0289 21.8669V12.7846C51.0289 12.5055 50.974 12.2291 50.8672 11.9712C50.7604 11.7133 50.6038 11.4789 50.4064 11.2815C50.209 11.0842 49.9747 10.9276 49.7168 10.8208C49.4589 10.714 49.1825 10.659 48.9033 10.659H44.5148Z" fill="#36C9C9"/>
<path fill-rule="evenodd" clip-rule="evenodd" d="M45.8755 7.60019H49.6605C49.8397 7.60016 50.0172 7.56483 50.1828 7.49622C50.3483 7.4276 50.4988 7.32705 50.6255 7.2003C50.7522 7.07354 50.8527 6.92307 50.9213 6.75748C50.9898 6.59188 51.0251 6.41441 51.0251 6.23518V1.36501C51.0251 1.18578 50.9898 1.0083 50.9213 0.842707C50.8527 0.677112 50.7522 0.526645 50.6255 0.399892C50.4988 0.273139 50.3483 0.172583 50.1828 0.103969C50.0172 0.0353558 49.8397 2.77936e-05 49.6605 0H45.8755C45.6962 2.77936e-05 45.5188 0.0353558 45.3532 0.103969C45.1876 0.172583 45.0372 0.273139 44.9105 0.399892C44.7838 0.526645 44.6833 0.677112 44.6147 0.842707C44.5462 1.0083 44.5109 1.18578 44.5109 1.36501V6.23518C44.5109 6.41441 44.5462 6.59188 44.6147 6.75748C44.6833 6.92307 44.7838 7.07354 44.9105 7.2003C45.0372 7.32705 45.1876 7.4276 45.3532 7.49622C45.5188 7.56483 45.6962 7.60016 45.8755 7.60019Z" fill="#36C9C9"/>
<path fill-rule="evenodd" clip-rule="evenodd" d="M37.0952 23.9921H41.1954C41.3539 23.9921 41.5109 23.9609 41.6573 23.9002C41.8038 23.8396 41.9368 23.7507 42.0489 23.6386C42.161 23.5265 42.2499 23.3935 42.3105 23.247C42.3712 23.1006 42.4024 22.9436 42.4024 22.7851V16.8595C42.4024 16.701 42.3712 16.544 42.3105 16.3976C42.2499 16.2511 42.161 16.1181 42.0489 16.006C41.9368 15.8939 41.8038 15.805 41.6573 15.7444C41.5109 15.6837 41.3539 15.6525 41.1954 15.6525H37.0952C36.9367 15.6525 36.7798 15.6837 36.6334 15.7444C36.4869 15.805 36.3539 15.8939 36.2418 16.006C36.1297 16.1181 36.0408 16.2511 35.9801 16.3976C35.9195 16.544 35.8883 16.701 35.8883 16.8595V22.7851C35.8883 22.9436 35.9195 23.1006 35.9801 23.247C36.0408 23.3935 36.1297 23.5265 36.2418 23.6386C36.3539 23.7507 36.4869 23.8396 36.6334 23.9002C36.7798 23.9609 36.9367 23.9921 37.0952 23.9921Z" fill="#36C9C9"/>
<path d="M46.7903 0.000152588H41.857V1.66681H46.7903V0.000152588Z" fill="#36C9C9"/>
<path d="M44.6599 22.3253H40.5266V23.992H44.6599V22.3253Z" fill="#36C9C9"/>
</svg>
