<svg width="18" height="18" viewBox="0 0 18 18" fill="none" xmlns="http://www.w3.org/2000/svg">
<path fill-rule="evenodd" clip-rule="evenodd" d="M7 1.03851H6.5V2.03851H7V2.07777V7.85285L3.68192 12.6243C2.99029 13.6189 3.702 14.9807 4.91342 14.9807H13.0866C14.298 14.9807 15.0097 13.6189 14.3181 12.6243L11 7.85285V2.07777V2.03851H11.5V1.03851H11H7ZM10 2.03851H8V2.07777V8.00961C8 8.11167 7.96877 8.21129 7.9105 8.29508L4.50292 13.1952C4.27238 13.5268 4.50962 13.9807 4.91342 13.9807H13.0866C13.4904 13.9807 13.7276 13.5268 13.4971 13.1952L10.0895 8.29508C10.0312 8.21129 10 8.11167 10 8.00961V2.07777V2.03851Z" fill="currentColor"/>
</svg>
