<svg width="18" height="18" viewBox="0 0 18 18" fill="none" xmlns="http://www.w3.org/2000/svg">
<path fill-rule="evenodd" clip-rule="evenodd" d="M7 1.03851H6.5V2.18196H7V2.22686V8.83036L3.68192 14.2863C2.99029 15.4235 3.702 16.9807 4.91343 16.9807H13.0866C14.298 16.9807 15.0097 15.4236 14.3181 14.2863L11 8.83036V2.22686V2.18196H11.5V1.03851H11H7ZM10 2.18196H8V2.22686V9.00961C8 9.12631 7.96877 9.24022 7.9105 9.33603L4.50292 14.9391C4.27238 15.3182 4.50962 15.8373 4.91343 15.8373H13.0866C13.4904 15.8373 13.7276 15.3182 13.4971 14.9391L10.0895 9.33603C10.0312 9.24022 10 9.12631 10 9.00961V2.22686V2.18196Z" fill="currentColor"/>
</svg>
