<svg width="18" height="18" viewBox="0 0 18 18" fill="none" xmlns="http://www.w3.org/2000/svg">
<path d="M10.9861 1.125L14.8888 3.375L14.1328 4.6935C14.3908 4.99837 14.6251 5.33231 14.8359 5.69531C15.0466 6.05831 15.2225 6.43331 15.3635 6.82031H16.8755V11.3203H15.3635C15.0823 12.1056 14.672 12.8145 14.1328 13.4471L14.8888 14.7656L10.9861 17.0156L10.2301 15.6971C9.40965 15.8494 8.58933 15.8494 7.76921 15.6971L7.01321 17.0156L3.11058 14.7656L3.86658 13.4471C3.59696 13.1306 3.35958 12.7937 3.15446 12.4363C2.94933 12.0789 2.77646 11.7069 2.63583 11.3203H1.12383V6.82031H2.63583C2.91708 6.03506 3.32733 5.32613 3.86658 4.6935L3.11058 3.375L7.01321 1.125L7.76921 2.4435C8.58971 2.29125 9.41002 2.29125 10.2301 2.4435L10.9861 1.125ZM11.408 2.65444L11.1971 3.006L10.8101 3.69169L10.0192 3.55106C9.33933 3.42206 8.65965 3.42206 7.98015 3.55106L7.18927 3.69169L6.59133 2.65444L4.65746 3.77944L5.2374 4.81669L4.72777 5.41463C4.28227 5.94188 3.94233 6.53362 3.70796 7.18987L3.44415 7.94588H2.24883V10.1959H3.42671L3.70796 10.9519C3.82533 11.2916 3.96596 11.6021 4.12983 11.8834C4.29371 12.1646 4.49302 12.4459 4.72777 12.7271L5.2374 13.3251L4.65746 14.3623L6.59133 15.4873L7.18927 14.4501L7.98015 14.5907C8.66002 14.7197 9.33971 14.7197 10.0192 14.5907L10.8101 14.4501L11.408 15.4873L13.3419 14.3623L12.762 13.3251L13.2716 12.7271C13.7171 12.1879 14.057 11.5961 14.2914 10.9519L14.5552 10.1959H15.7505V7.94588H14.5726L14.2914 7.18987C14.186 6.87337 14.0454 6.56569 13.8695 6.26681C13.6936 5.96794 13.4943 5.68369 13.2716 5.41406L12.762 4.81613L13.3419 3.77887L11.408 2.65444ZM8.99996 5.13281C10.1133 5.15644 11.042 5.54025 11.786 6.28425C12.53 7.02825 12.9138 7.95694 12.9375 9.07031C12.9138 10.1837 12.53 11.1124 11.786 11.8564C11.042 12.6004 10.1133 12.9842 8.99996 13.0078C7.88658 12.9842 6.9579 12.6004 6.21389 11.8564C5.46989 11.1124 5.08608 10.1837 5.06246 9.07031C5.08608 7.95694 5.46989 7.02825 6.21389 6.28425C6.9579 5.54025 7.88658 5.15644 8.99996 5.13281ZM8.99996 6.25781C8.20308 6.28144 7.54102 6.55687 7.01377 7.08413C6.48652 7.61137 6.21108 8.27344 6.18746 9.07031C6.21108 9.86719 6.48652 10.5293 7.01377 11.0565C7.54102 11.5837 8.20308 11.8592 8.99996 11.8828C9.79683 11.8592 10.4589 11.5837 10.9861 11.0565C11.5134 10.5293 11.7888 9.86719 11.8125 9.07031C11.7888 8.27344 11.5134 7.61137 10.9861 7.08413C10.4589 6.55687 9.79683 6.28144 8.99996 6.25781Z" fill="currentColor"/>
</svg>
