<svg width="24" height="24" viewBox="0 0 24 24" fill="none" xmlns="http://www.w3.org/2000/svg">
<rect width="24" height="24" rx="12" fill="currentColor"/>
<path d="M8.99723 9.42838C9.01523 10.2767 9.30766 10.9842 9.87451 11.5511C10.4414 12.1179 11.1489 12.4104 11.9972 12.4284C12.8455 12.4104 13.5531 12.1179 14.1199 11.5511C14.6868 10.9842 14.9792 10.2767 14.9972 9.42838C14.9792 8.58009 14.6868 7.87252 14.1199 7.30566C13.5531 6.7388 12.8455 6.44638 11.9972 6.42838C11.1489 6.44638 10.4414 6.7388 9.87451 7.30566C9.30766 7.87252 9.01523 8.58009 8.99723 9.42838ZM16.2829 17.5712H7.28294C7.1578 17.5712 7.05508 17.5311 6.9748 17.4508C6.89451 17.3705 6.85437 17.2678 6.85437 17.1427V15.8569C6.87237 15.2498 7.08223 14.7454 7.48394 14.3437C7.88566 13.9419 8.39008 13.7321 8.99723 13.7141H14.9972C15.6044 13.7321 16.1088 13.9419 16.5105 14.3437C16.9122 14.7454 17.1221 15.2498 17.1401 15.8569V17.1427C17.1401 17.2678 17.0999 17.3705 17.0197 17.4508C16.9394 17.5311 16.8367 17.5712 16.7115 17.5712H16.2829Z" fill="#ffffff"/>
</svg>
